<svg width="24" height="24" viewBox="0 0 24 24" fill="none" xmlns="http://www.w3.org/2000/svg">
<path d="M18.9754 8.47775C18.8652 8.56326 16.9194 9.65967 16.9194 12.0976C16.9194 14.9175 19.3953 15.9151 19.4694 15.9398C19.458 16.0006 19.0761 17.306 18.164 18.6362C17.3507 19.8067 16.5014 20.9753 15.2092 20.9753C13.9171 20.9753 13.5846 20.2247 12.0929 20.2247C10.6393 20.2247 10.1224 21 8.94049 21C7.75858 21 6.93389 19.9169 5.9857 18.5868C4.88739 17.0248 4 14.5983 4 12.2952C4 8.60126 6.40184 6.64216 8.76568 6.64216C10.0217 6.64216 11.0687 7.46685 11.8573 7.46685C12.6079 7.46685 13.7784 6.59276 15.2073 6.59276C15.7489 6.59276 17.6947 6.64216 18.9754 8.47775ZM14.529 5.0289C15.1199 4.32773 15.538 3.35484 15.538 2.38194C15.538 2.24702 15.5266 2.11021 15.5018 2C14.5404 2.0361 13.3964 2.64036 12.7067 3.44034C12.1651 4.05601 11.6597 5.0289 11.6597 6.0151C11.6597 6.16332 11.6844 6.31153 11.6958 6.35904C11.7566 6.37044 11.8554 6.38374 11.9542 6.38374C12.8169 6.38374 13.9019 5.80608 14.529 5.0289Z" fill="#597572"/>
</svg>
