<svg width="14" height="9" viewBox="0 0 14 9" fill="none" xmlns="http://www.w3.org/2000/svg">
<path d="M10.6963 7.39413H3.30258C3.12947 7.39098 2.9625 7.32948 2.82871 7.21958C2.69492 7.10969 2.60216 6.95784 2.56545 6.78865L1.42591 1.99171C1.3954 1.87683 1.39118 1.75654 1.41356 1.6398C1.43593 1.52306 1.48433 1.41287 1.55516 1.3174C1.62599 1.22194 1.71742 1.14367 1.82266 1.08841C1.9279 1.03315 2.04424 1.00232 2.16304 0.998215H11.8358C11.9546 1.00232 12.0709 1.03315 12.1762 1.08841C12.2814 1.14367 12.3728 1.22194 12.4437 1.3174C12.5145 1.41287 12.5629 1.52306 12.5853 1.6398C12.6076 1.75654 12.6034 1.87683 12.5729 1.99171L11.4334 6.78865C11.3967 6.95784 11.3039 7.10969 11.1701 7.21958C11.0363 7.32948 10.8694 7.39098 10.6963 7.39413Z" stroke="#133D38" stroke-width="1.5" stroke-linecap="round" stroke-linejoin="round"/>
</svg>
