<svg width="25" height="24" viewBox="0 0 25 24" fill="none" xmlns="http://www.w3.org/2000/svg">
<g clip-path="url(#clip0_2117_2644)">
<path d="M5.55235 9.68291L4.77135 7.25591C4.64954 6.87745 4.68297 6.4661 4.86429 6.11227C5.04561 5.75844 5.35999 5.49107 5.73835 5.36891L19.6443 0.88991C20.0229 0.768145 20.4344 0.801713 20.7882 0.983235C21.1421 1.16476 21.4094 1.47937 21.5313 1.85791L23.6113 8.31391C23.6718 8.50144 23.6947 8.69904 23.6787 8.89542C23.6628 9.0918 23.6083 9.28312 23.5184 9.45844C23.4285 9.63377 23.305 9.78967 23.1548 9.91723C23.0047 10.0448 22.8309 10.1416 22.6433 10.2019L17.8183 11.7559" stroke="#597572" stroke-width="1.5" stroke-linecap="round" stroke-linejoin="round"/>
<path d="M17.8164 18.6831V21.2541C17.8156 21.5082 17.7648 21.7597 17.6668 21.9941C17.5689 22.2286 17.4257 22.4415 17.2454 22.6206C17.0652 22.7997 16.8514 22.9416 16.6164 23.0381C16.3813 23.1346 16.1295 23.1839 15.8754 23.1831H3.25741C3.0033 23.1839 2.75152 23.1346 2.51646 23.0381C2.28139 22.9416 2.06763 22.7997 1.88739 22.6206C1.70716 22.4415 1.56396 22.2286 1.46599 21.9941C1.36802 21.7597 1.31719 21.5082 1.31641 21.2541V11.6111C1.31719 11.357 1.36803 11.1056 1.46601 10.8712C1.564 10.6368 1.7072 10.424 1.88746 10.245C2.06771 10.0659 2.28147 9.92415 2.51653 9.82775C2.75159 9.73134 3.00335 9.6822 3.25741 9.68312H15.8754C16.1295 9.6822 16.3812 9.73134 16.6163 9.82775C16.8514 9.92415 17.0651 10.0659 17.2454 10.245C17.4256 10.424 17.5688 10.6368 17.6668 10.8712C17.7648 11.1056 17.8156 11.357 17.8164 11.6111V14.1831" stroke="#597572" stroke-width="1.5" stroke-linecap="round" stroke-linejoin="round"/>
<path d="M5.06641 9.69824V23.1832" stroke="#597572" stroke-width="1.5" stroke-linecap="round" stroke-linejoin="round"/>
<path d="M14.645 14.1831C14.0716 14.207 13.531 14.4572 13.1417 14.879C12.7524 15.3007 12.5461 15.8596 12.568 16.4331C12.5461 17.0066 12.7524 17.5655 13.1417 17.9872C13.531 18.4089 14.0716 18.6592 14.645 18.6831H18.28C18.5666 18.6709 18.8367 18.5456 19.0312 18.3348C19.2257 18.124 19.3289 17.8447 19.318 17.5581V15.3081C19.3291 15.0214 19.2261 14.7419 19.0315 14.5311C18.8369 14.3202 18.5667 14.195 18.28 14.1831H14.645Z" stroke="#597572" stroke-width="1.5" stroke-linecap="round" stroke-linejoin="round"/>
<path d="M16.7266 16.8081C16.5195 16.8081 16.3516 16.6402 16.3516 16.4331C16.3516 16.226 16.5195 16.0581 16.7266 16.0581" stroke="#597572" stroke-width="1.5"/>
<path d="M16.7266 16.8081C16.9337 16.8081 17.1016 16.6402 17.1016 16.4331C17.1016 16.226 16.9337 16.0581 16.7266 16.0581" stroke="#597572" stroke-width="1.5"/>
<path d="M12.7305 7.50011C12.867 7.23097 13.0816 7.00927 13.3461 6.86398C13.6106 6.71869 13.9128 6.65657 14.2132 6.68573C14.5136 6.71489 14.7982 6.83398 15.0298 7.02744C15.2614 7.2209 15.4293 7.47973 15.5115 7.77011" stroke="#597572" stroke-width="1.5" stroke-linecap="round" stroke-linejoin="round"/>
</g>
<defs>
<clipPath id="clip0_2117_2644">
<rect width="24" height="24" fill="white" transform="translate(0.5)"/>
</clipPath>
</defs>
</svg>
