<svg width="14" height="14" viewBox="0 0 14 14" fill="none" xmlns="http://www.w3.org/2000/svg">
<path d="M8.85624 0H0.670965C0.290794 0 0 0.290782 0 0.670965V8.85624C0 9.23641 0.290782 9.52721 0.670965 9.52721H8.85624C9.23641 9.52721 9.52721 9.23643 9.52721 8.85624V0.670965C9.52721 0.313102 9.23643 0 8.85624 0V0ZM8.18528 8.18528H1.34185V1.34185H8.18528V8.18528Z" fill="#133D38"/>
<path d="M5.81459 12.6579V10.4215H4.47266V13.3289C4.47266 13.7091 4.76344 13.9999 5.14362 13.9999H13.3289C13.7091 13.9999 13.9999 13.7091 13.9999 13.3289V5.14362C13.9999 4.76345 13.7091 4.47266 13.3289 4.47266H10.4215V5.81459H12.6579V12.658L5.81459 12.6579Z" fill="#133D38"/>
</svg>

