<svg width="48" height="48" viewBox="0 0 48 48" fill="none" xmlns="http://www.w3.org/2000/svg">
<path d="M34.5 0H13.5C6.04416 0 0 6.04416 0 13.5V34.5C0 41.9558 6.04416 48 13.5 48H34.5C41.9558 48 48 41.9558 48 34.5V13.5C48 6.04416 41.9558 0 34.5 0Z" fill="url(#paint0_linear_4945_7782)"/>
<path fill-rule="evenodd" clip-rule="evenodd" d="M22.4986 16C21.9066 13.6997 19.8185 12 17.3333 12C14.3878 12 12 14.3878 12 17.3333C12 20.2789 14.3878 22.6667 17.3333 22.6667C19.8185 22.6667 21.9066 20.967 22.4986 18.6667H27.1111V23.1111H29.7778V18.6667H31.5556V23.1111H34.2222V18.6667H36V16H22.4986ZM20 17.3333C20 18.8061 18.8061 20 17.3333 20C15.8606 20 14.6667 18.8061 14.6667 17.3333C14.6667 15.8606 15.8606 14.6667 17.3333 14.6667C18.8061 14.6667 20 15.8606 20 17.3333Z" fill="white"/>
<path fill-rule="evenodd" clip-rule="evenodd" d="M25.5014 32.0017C26.0934 34.302 28.1815 36.0017 30.6667 36.0017C33.6122 36.0017 36 33.6139 36 30.6684C36 27.7228 33.6122 25.335 30.6667 25.335C28.1815 25.335 26.0934 27.0347 25.5014 29.335H20.8889V24.8906H18.2222V29.335H16.4444V24.8906H13.7778V29.335H12V32.0017H25.5014ZM28 30.6684C28 29.1956 29.1939 28.0017 30.6667 28.0017C32.1394 28.0017 33.3333 29.1956 33.3333 30.6684C33.3333 32.1411 32.1394 33.335 30.6667 33.335C29.1939 33.335 28 32.1411 28 30.6684Z" fill="white"/>
<defs>
<linearGradient id="paint0_linear_4945_7782" x1="48" y1="0" x2="1.14441e-05" y2="48" gradientUnits="userSpaceOnUse">
<stop stop-color="#CDADFF"/>
<stop offset="1" stop-color="#6432F1"/>
</linearGradient>
</defs>
</svg>
