<svg width="74" height="26" viewBox="0 0 74 26" fill="none" xmlns="http://www.w3.org/2000/svg">
<path d="M12.9432 0C5.79525 0 0 5.82085 0 13.0002C0 20.1795 5.79525 26 12.9432 26C20.0911 26 25.8857 20.1797 25.8857 13.0002C25.8857 5.82071 20.0908 0 12.9432 0ZM17.3229 17.4005C12.9249 21.8185 7.39787 23.4298 4.97822 20.9998C2.55871 18.5703 4.16373 13.0185 8.56279 8.6005C12.9611 4.18254 18.4879 2.5707 20.9077 5.00017C23.3273 7.42965 21.7222 12.9815 17.3229 17.4005Z" fill="#133D38"/>
<path d="M54.9453 4.88086L54.9568 18.2106V18.5481C54.9568 20.1042 56.0968 21.3706 57.6529 21.3706H59.6191V18.443C58.7562 18.634 58.1304 18.5483 58.1304 17.5341L58.245 4.88086H54.9453Z" fill="#133D38"/>
<path d="M67.0379 8.06348C62.9639 8.06348 60.5195 11.0758 60.5195 14.7792C60.5195 18.4827 62.9639 21.495 67.0379 21.495C71.1118 21.495 73.5561 18.4829 73.5561 14.7792C73.5561 11.0756 71.1117 8.06348 67.0379 8.06348ZM67.0379 18.6309C64.8897 18.6309 63.6799 16.9027 63.6799 14.7793C63.6799 12.6558 64.8897 10.9276 67.0379 10.9276C69.186 10.9276 70.3957 12.6559 70.3957 14.7793C70.3957 16.9026 69.1859 18.6309 67.0379 18.6309Z" fill="#133D38"/>
<path d="M46.3947 15.364H48.624C48.11 17.2731 47.0355 18.307 44.8134 18.307C42.1363 18.307 40.1965 16.6905 40.1965 13.0836C40.1965 11.1422 41.5597 7.72164 44.9358 7.72164C46.9222 7.72164 48.5783 8.54408 49.1756 10.3301H52.6328C52.1114 7.37674 49.4362 4.78467 44.596 4.78467C39.1026 4.78467 36.3555 9.36453 36.3555 13.305C36.3555 18.3801 40.1296 21.5348 44.1526 21.5348C47.3738 21.5348 48.7611 19.3528 49.2751 18.1045C49.3241 17.982 49.366 17.8389 49.5618 17.9125C49.7087 17.9613 49.6872 18.1086 49.6137 18.3046C49.271 19.1368 49.2436 19.6502 49.2436 20.2132V21.3391H52.6702V12.6228H46.3947L46.3947 15.364Z" fill="#133D38"/>
</svg>
