<svg width="24" height="24" viewBox="0 0 24 24" fill="none" xmlns="http://www.w3.org/2000/svg">
<path d="M14.952 8.37819C14.1309 7.58546 13.0864 7.18182 11.9232 7.18182C9.85955 7.18182 8.11285 8.5891 7.4898 10.48C7.33133 10.96 7.2413 11.4728 7.2413 12C7.2413 12.5273 7.33133 13.04 7.48978 13.52C8.11283 15.4109 9.85955 16.8182 11.9232 16.8182C12.9892 16.8182 13.8968 16.5345 14.6062 16.0545C15.4454 15.4873 16.0036 14.64 16.1873 13.64H11.9232V10.5455H19.3854C19.479 11.0691 19.5294 11.6146 19.5294 12.1818C19.5294 14.6182 18.6651 16.6691 17.1669 18.0619C15.8559 19.2837 14.0624 20 11.9232 20C8.82594 20 6.14648 18.2073 4.84275 15.5927C4.30614 14.5127 4 13.2909 4 12C4 10.7091 4.30612 9.48729 4.84274 8.40729C6.14646 5.79274 8.82593 4 11.9232 4C14.0588 4 15.8523 4.79273 17.2245 6.08364L14.952 8.37819Z" fill="#597572"/>
</svg>
