
<svg width="14" height="11" viewBox="0 0 14 11" fill="none" xmlns="http://www.w3.org/2000/svg">
<path d="M4.38608 6.97331H3.26608C2.77101 6.97331 2.29622 6.77664 1.94615 6.42657C1.59608 6.07651 1.39941 5.60171 1.39941 5.10664C1.39941 4.61157 1.59608 4.13678 1.94615 3.78671C2.29622 3.43664 2.77101 3.23997 3.26608 3.23997H4.38608V6.97331Z" stroke="#133D38" stroke-width="1.5" stroke-linecap="round" stroke-linejoin="round"/>
<path d="M4.38672 6.97331C6.57751 6.9735 8.71926 7.62194 10.5422 8.83699L11.1067 9.21331V0.999977L10.5422 1.3763C8.71926 2.59134 6.57751 3.23979 4.38672 3.23998V6.97331Z" stroke="#133D38" stroke-width="1.5" stroke-linecap="round" stroke-linejoin="round"/>
<path d="M12.5996 4.35998V5.85331" stroke="#133D38" stroke-width="1.5" stroke-linecap="round" stroke-linejoin="round"/>
<path d="M4.38672 6.97341C4.3864 7.4622 4.48553 7.94594 4.67807 8.39521C4.87062 8.84448 5.15255 9.24988 5.50672 9.58674" stroke="#133D38" stroke-width="1.5" stroke-linecap="round" stroke-linejoin="round"/>
</svg>
