<svg width="20" height="20" viewBox="0 0 20 20" fill="none" xmlns="http://www.w3.org/2000/svg">
<g clip-path="url(#clip0_2117_2672)">
<path d="M5.80078 7.60054L8.43588 11.2892C8.54435 11.4411 8.6862 11.566 8.85052 11.6545C9.01484 11.743 9.19726 11.7926 9.38376 11.7995C9.57025 11.8065 9.75586 11.7706 9.92631 11.6946C10.0968 11.6186 10.2475 11.5046 10.367 11.3612L19.0003 1" stroke="#133D38" stroke-width="1.5" stroke-linecap="round" stroke-linejoin="round"/>
<path d="M17.7993 8.80043V16.6001C17.7993 17.2366 17.5465 17.847 17.0964 18.2971C16.6464 18.7472 16.0359 19 15.3994 19H3.39991C2.76341 19 2.15299 18.7472 1.70292 18.2971C1.25285 17.847 1 17.2366 1 16.6001V4.60059C1 3.9641 1.25285 3.35367 1.70292 2.9036C2.15299 2.45353 2.76341 2.20068 3.39991 2.20068H13.5995" stroke="#133D38" stroke-width="1.5" stroke-linecap="round" stroke-linejoin="round"/>
</g>
<defs>
<clipPath id="clip0_2117_2672">
<rect width="20" height="20" fill="white"/>
</clipPath>
</defs>
</svg>
