<svg width="16" height="16" viewBox="0 0 16 16" fill="none" xmlns="http://www.w3.org/2000/svg">
<path d="M1 3.33333V1.93333C1 1.6858 1.09833 1.4484 1.27337 1.27337C1.4484 1.09833 1.6858 1 1.93333 1H3.33333" stroke="#2B504C" stroke-width="1.5" stroke-linecap="round" stroke-linejoin="round"/>
<path d="M15.0013 3.33333V1.93333C15.0013 1.6858 14.903 1.4484 14.7279 1.27337C14.5529 1.09833 14.3155 1 14.068 1H12.668" stroke="#2B504C" stroke-width="1.5" stroke-linecap="round" stroke-linejoin="round"/>
<path d="M1 12.6667V14.0667C1 14.3142 1.09833 14.5516 1.27337 14.7266C1.4484 14.9017 1.6858 15 1.93333 15H3.33333" stroke="#2B504C" stroke-width="1.5" stroke-linecap="round" stroke-linejoin="round"/>
<path d="M15.0013 12.667V14.067C15.0013 14.3145 14.903 14.5519 14.7279 14.727C14.5529 14.902 14.3155 15.0003 14.068 15.0003H12.668" stroke="#2B504C" stroke-width="1.5" stroke-linecap="round" stroke-linejoin="round"/>
<path d="M8 5V11M11 8L5 8" stroke="#2B504C" stroke-width="1.5" stroke-linecap="round" stroke-linejoin="round"/>
</svg>
