<?xml version="1.0" encoding="UTF-8" standalone="no"?>
<!DOCTYPE svg PUBLIC "-//W3C//DTD SVG 1.1//EN" "http://www.w3.org/Graphics/SVG/1.1/DTD/svg11.dtd">
<svg xmlns="http://www.w3.org/2000/svg" xmlns:dc="http://purl.org/dc/elements/1.1/" xmlns:xl="http://www.w3.org/1999/xlink" version="1.1" viewBox="124.6 124.7 436.5 374.1" width="436.5" height="374.1">
  <defs/>
  <metadata> Produced by OmniGraffle 7.18.6\n2024-06-07 14:23:15 +0000</metadata>
  <g id="Canvas_1" stroke-opacity="1" stroke="none" fill-opacity="1" fill="none" stroke-dasharray="none">
    <title>Canvas 1</title>
    <g id="Canvas_1_Layer_1">
      <title>Layer 1</title>
      <g id="Group_2">
        <g id="Group_5">
          <g id="Graphic_6">
            <path d="M 342.9 124.7 C 367.8 124.7 391.9 129.6 414.7 139.2 C 426.8 144.3 438.4 150.8 449.2 158.4 L 446.9 159.6 L 417.3 174.7 C 394.7 162.1 369 155.5 342.9 155.5 C 342.5 155.5 342.1 155.5 341.7 155.5 C 321.6 155.7 302 159.7 283.5 167.4 C 265 175.2 248.4 186.3 234.2 200.5 C 205.2 229.6 189.2 268.2 189.2 309.2 C 189.2 315.9 189.6 322.6 190.5 329.3 L 190.8 331.4 L 192.7 330.4 L 448.2 200.1 L 501.1 173.1 L 561 142.5 L 561 177.1 L 499.3 208.6 L 469 224 L 199.7 361.5 L 198.5 362.2 L 184.7 369.2 L 170.7 376.3 L 170.7 376.2 L 169.4 376.8 L 124.6 399.7 L 124.6 365.1 L 139.8 357.4 C 152.5 350.9 160.1 337.5 159 323.2 C 158.7 318.5 158.5 313.8 158.5 309.1 C 158.5 284.2 163.4 260 173 237.2 C 182.3 215.2 195.6 195.5 212.5 178.5 C 229.4 161.6 249.1 148.2 271.1 138.9 C 293.8 129.6 318 124.7 342.9 124.7" fill="#0f0f0f"/>
          </g>
        </g>
        <g id="Group_3">
          <g id="Graphic_4">
            <path d="M 561.1 223.4 L 561.1 258 L 545.9 265.7 C 533.2 272.2 525.6 285.6 526.7 299.9 C 527.1 304.6 527.2 309.4 527.2 314.1 C 527.2 339 522.3 363.2 512.7 386 C 503.4 408 490.1 427.7 473.2 444.7 C 456.3 461.7 436.5 475 414.6 484.3 C 391.9 493.9 367.7 498.8 342.8 498.8 C 317.9 498.8 293.8 493.9 271 484.3 C 258.8 479.1 247.2 472.6 236.4 465 L 267 449.4 L 268.2 448.8 C 290.8 461.4 316.6 468.1 342.8 468.1 C 343.2 468.1 343.5 468.1 343.9 468.1 C 364 468 383.6 464 402.1 456.2 C 420.6 448.4 437.2 437.3 451.4 423.1 C 480.4 394.1 496.4 355.4 496.4 314.4 C 496.4 307.7 496 300.9 495.1 294.2 L 494.8 292.1 L 492.9 293.1 L 237.2 423.2 L 184.3 450.2 L 124.6 480.6 L 124.6 446 L 186.1 414.6 L 216.4 399.2 L 561.1 223.4" fill="#0f0f0f"/>
          </g>
        </g>
      </g>
    </g>
  </g>
</svg>
