<svg width="16" height="16" viewBox="0 0 16 16" fill="none" xmlns="http://www.w3.org/2000/svg">
<path d="M14.2473 1.04147C14.3468 1.00025 14.4562 0.989453 14.5618 1.01045C14.6674 1.03144 14.7644 1.08329 14.8406 1.15942C14.9167 1.23556 14.9686 1.33257 14.9896 1.43817C15.0105 1.54377 14.9998 1.65323 14.9585 1.7527L9.60471 14.6644C9.55998 14.7721 9.48182 14.8627 9.38175 14.9226C9.28168 14.9826 9.165 15.0088 9.04891 14.9974C8.93281 14.986 8.82344 14.9376 8.73692 14.8594C8.6504 14.7812 8.59131 14.6772 8.56835 14.5628L7.37958 8.62042L1.43719 7.43165C1.32282 7.40869 1.21885 7.3496 1.1406 7.26308C1.06236 7.17656 1.01398 7.06719 1.0026 6.95109C0.991216 6.835 1.01743 6.71832 1.07738 6.61825C1.13734 6.51818 1.22785 6.44002 1.33559 6.39529L14.2473 1.04147Z" stroke="#2B504C" stroke-width="1.5" stroke-linecap="round" stroke-linejoin="round"/>
</svg>
