<svg width="16" height="16" viewBox="0 0 16 16" fill="none" xmlns="http://www.w3.org/2000/svg">
<path fill-rule="evenodd" clip-rule="evenodd" d="M6.2 0.25C5.62194 0.25 5.11195 0.538155 4.76582 0.970819C4.42316 1.39914 4.25 1.95075 4.25 2.5V3.40234H3.1543H1C0.585786 3.40234 0.25 3.73813 0.25 4.15234C0.25 4.56656 0.585786 4.90234 1 4.90234H2.4043V13.8447C2.4043 14.3292 2.59678 14.7939 2.93939 15.1365C3.282 15.4791 3.74669 15.6716 4.23122 15.6716H11.7697C12.2542 15.6716 12.7189 15.4791 13.0615 15.1365C13.4041 14.7939 13.5966 14.3292 13.5966 13.8447V4.90234H15C15.4142 4.90234 15.75 4.56656 15.75 4.15234C15.75 3.73813 15.4142 3.40234 15 3.40234H12.8466H11.75V2.5C11.75 1.95075 11.5768 1.39914 11.2342 0.970819C10.888 0.538155 10.3781 0.25 9.8 0.25H6.2ZM5.93712 1.90786C6.04108 1.77792 6.14154 1.75 6.2 1.75H9.8C9.85846 1.75 9.95892 1.77792 10.0629 1.90786C10.1703 2.04215 10.25 2.2536 10.25 2.5V3.25H5.75V2.5C5.75 2.2536 5.82969 2.04215 5.93712 1.90786ZM3.9043 4.90234H12.0966V13.8447C12.0966 13.9314 12.0622 14.0145 12.0008 14.0758C11.9395 14.1371 11.8564 14.1716 11.7697 14.1716H4.23122C4.14452 14.1716 4.06136 14.1371 4.00005 14.0758C3.93874 14.0145 3.9043 13.9314 3.9043 13.8447V4.90234Z" fill="#133D38"/>
</svg>
