<svg width="20" height="20" viewBox="0 0 20 20" fill="none" xmlns="http://www.w3.org/2000/svg">
<path d="M16.8571 3H3.14286C2.51167 3 2 3.51167 2 4.14286V16.7143C2 17.3455 2.51167 17.8571 3.14286 17.8571H16.8571C17.4883 17.8571 18 17.3455 18 16.7143V4.14286C18 3.51167 17.4883 3 16.8571 3Z" stroke="#133D38" stroke-width="1.5" stroke-linecap="round" stroke-linejoin="round"/>
<path d="M2 6.42847H18" stroke="#133D38" stroke-width="1.5" stroke-linecap="round" stroke-linejoin="round"/>
<path d="M2 13.2857H5.86514C6.07742 13.2857 6.28551 13.2267 6.46611 13.1151C6.64671 13.0036 6.79266 12.8439 6.88762 12.654L8.24 9.94852C8.29059 9.84731 8.37009 9.76339 8.46842 9.70741C8.56675 9.65143 8.67949 9.6259 8.79235 9.63406C8.90521 9.64222 9.0131 9.6837 9.10236 9.75325C9.19161 9.82279 9.25821 9.91727 9.29371 10.0247L10.707 14.2647C10.7427 14.3719 10.8093 14.4662 10.8985 14.5356C10.9876 14.6049 11.0954 14.6463 11.2081 14.6545C11.3208 14.6626 11.4333 14.6372 11.5316 14.5814C11.6298 14.5256 11.7093 14.4419 11.76 14.3409L13.1162 11.6323C13.211 11.4425 13.3568 11.2827 13.5372 11.171C13.7177 11.0593 13.9257 11.0001 14.1379 11H18" stroke="#133D38" stroke-width="1.5" stroke-linecap="round" stroke-linejoin="round"/>
</svg>
