 <svg width="16" height="15" viewBox="0 0 16 15" fill="none" xmlns="http://www.w3.org/2000/svg">
<path d="M10.3998 14.2402C10.3998 13.7309 10.1975 13.2426 9.83745 12.8825C9.47738 12.5224 8.98902 12.3202 8.47981 12.3202H6.07981C6.07981 11.8109 5.87752 11.3226 5.51745 10.9625C5.15738 10.6024 4.66902 10.4002 4.1598 10.4002H0.799805V14.2402H10.3998Z" stroke="#133D38" stroke-width="1.5" stroke-linecap="round" stroke-linejoin="round"/>
<path d="M10.3996 10.4C13.0506 10.4 15.1996 8.25097 15.1996 5.6C15.1996 2.94903 13.0506 0.799999 10.3996 0.799999C7.74864 0.799999 5.59961 2.94903 5.59961 5.6C5.59961 8.25097 7.74864 10.4 10.3996 10.4Z" stroke="#133D38" stroke-width="1.5" stroke-linecap="round" stroke-linejoin="round"/>
<path d="M7.76855 1.6L10.4502 3.392C10.5821 3.47963 10.6903 3.59854 10.7651 3.73812C10.8399 3.8777 10.879 4.03363 10.879 4.192V5.2928C10.8799 5.51533 10.803 5.7312 10.6616 5.90302C10.5202 6.07484 10.3231 6.19178 10.1046 6.2336L8.47895 6.56L8.82455 7.9552C8.86524 8.11533 8.86363 8.28327 8.81987 8.44259C8.77612 8.6019 8.69172 8.74712 8.57495 8.864L7.76855 9.6192" stroke="#133D38" stroke-width="1.5" stroke-linecap="round" stroke-linejoin="round"/>
<path d="M15.1752 6.08008L13.1208 6.77128C12.898 6.84487 12.7099 6.99749 12.592 7.2003C12.4741 7.40311 12.4345 7.64208 12.4808 7.87208L12.8584 9.72168" stroke="#133D38" stroke-width="1.5" stroke-linecap="round" stroke-linejoin="round"/>
</svg>

