 <svg width="36" height="36" viewBox="0 0 36 36" fill="none" xmlns="http://www.w3.org/2000/svg"><path d="M17.931 36C27.8341 36 35.8621 27.9411 35.8621 18C35.8621 8.05888 27.8341 0 17.931 0C8.028 0 0 8.05888 0 18C0 27.9411 8.028 36 17.931 36Z" fill="url(#svgComponent)"></path><path d="M17.7706 27.197C22.875 27.197 27.0129 22.9976 27.0129 17.8173C27.0129 12.637 22.875 8.4375 17.7706 8.4375C12.6662 8.4375 8.52832 12.637 8.52832 17.8173C8.52832 22.9976 12.6662 27.197 17.7706 27.197Z" stroke="white" stroke-width="2.5"></path><path d="M21.9345 25.6921V17.7461L7.4707 29.6306" stroke="white" stroke-width="2.5" stroke-linecap="round" stroke-linejoin="round"></path><path d="M13.6065 9.93972V17.8857L28.0703 6.00125" stroke="white" stroke-width="2.5" stroke-linecap="round" stroke-linejoin="round"></path><defs><linearGradient id="svgComponent" x1="0" y1="0" x2="39.07" y2="3.90501" gradientUnits="userSpaceOnUse"><stop stop-color="#087EE1"></stop><stop offset="1" stop-color="#04C29C"></stop></linearGradient></defs></svg>
